<svg width="174" height="62" viewBox="0 0 174 62" fill="none" xmlns="http://www.w3.org/2000/svg">
<rect y="0.729492" width="174" height="61" rx="8" fill="#00A000"/>
<path d="M39.272 40.0415C37.656 40.0415 36.28 39.6735 35.144 38.9375C34.024 38.2015 33.24 37.1935 32.792 35.9135L35.168 34.5215C35.84 36.4095 37.232 37.3535 39.344 37.3535C40.384 37.3535 41.16 37.1535 41.672 36.7535C42.2 36.3375 42.464 35.8015 42.464 35.1455C42.464 34.4575 42.184 33.9375 41.624 33.5855C41.064 33.2175 40.072 32.8175 38.648 32.3855C37.848 32.1455 37.2 31.9215 36.704 31.7135C36.208 31.5055 35.68 31.2175 35.12 30.8495C34.576 30.4655 34.168 29.9935 33.896 29.4335C33.624 28.8735 33.488 28.2175 33.488 27.4655C33.488 25.9775 34.016 24.8015 35.072 23.9375C36.128 23.0575 37.4 22.6175 38.888 22.6175C40.232 22.6175 41.408 22.9455 42.416 23.6015C43.424 24.2575 44.2 25.1615 44.744 26.3135L42.416 27.6575C41.712 26.0895 40.536 25.3055 38.888 25.3055C38.088 25.3055 37.448 25.4975 36.968 25.8815C36.488 26.2495 36.248 26.7535 36.248 27.3935C36.248 28.0175 36.488 28.5135 36.968 28.8815C37.464 29.2335 38.352 29.6095 39.632 30.0095C40.272 30.2175 40.736 30.3775 41.024 30.4895C41.328 30.5855 41.744 30.7455 42.272 30.9695C42.816 31.1935 43.224 31.4175 43.496 31.6415C43.768 31.8655 44.056 32.1455 44.36 32.4815C44.68 32.8175 44.904 33.2015 45.032 33.6335C45.16 34.0655 45.224 34.5535 45.224 35.0975C45.224 36.6175 44.672 37.8255 43.568 38.7215C42.48 39.6015 41.048 40.0415 39.272 40.0415ZM55.5453 27.7295H58.1373V39.7295H55.5453V38.1935C54.7613 39.4255 53.5213 40.0415 51.8253 40.0415C50.4493 40.0415 49.3373 39.6015 48.4893 38.7215C47.6413 37.8415 47.2173 36.6335 47.2173 35.0975V27.7295H49.8093V34.8335C49.8093 35.7295 50.0493 36.4175 50.5293 36.8975C51.0093 37.3775 51.6653 37.6175 52.4973 37.6175C53.4093 37.6175 54.1453 37.3375 54.7053 36.7775C55.2653 36.2015 55.5453 35.3295 55.5453 34.1615V27.7295ZM67.9603 27.4175C69.6083 27.4175 71.0163 28.0255 72.1843 29.2415C73.3523 30.4575 73.9363 31.9535 73.9363 33.7295C73.9363 35.4895 73.3523 36.9855 72.1843 38.2175C71.0163 39.4335 69.6083 40.0415 67.9603 40.0415C66.1363 40.0415 64.7363 39.3615 63.7603 38.0015V39.7295H61.1683V22.9295H63.7603V29.4335C64.7363 28.0895 66.1363 27.4175 67.9603 27.4175ZM64.8403 36.4895C65.5603 37.2095 66.4643 37.5695 67.5523 37.5695C68.6403 37.5695 69.5443 37.2095 70.2643 36.4895C70.9843 35.7535 71.3443 34.8335 71.3443 33.7295C71.3443 32.6255 70.9843 31.7135 70.2643 30.9935C69.5443 30.2575 68.6403 29.8895 67.5523 29.8895C66.4643 29.8895 65.5603 30.2575 64.8403 30.9935C64.1203 31.7135 63.7603 32.6255 63.7603 33.7295C63.7603 34.8335 64.1203 35.7535 64.8403 36.4895ZM78.3791 31.0415C78.3791 31.4415 78.5951 31.7615 79.0271 32.0015C79.4751 32.2255 80.0111 32.4255 80.6351 32.6015C81.2751 32.7615 81.9151 32.9535 82.5551 33.1775C83.1951 33.4015 83.7311 33.7855 84.1631 34.3295C84.6111 34.8575 84.8351 35.5295 84.8351 36.3455C84.8351 37.4975 84.3871 38.4015 83.4911 39.0575C82.6111 39.7135 81.4991 40.0415 80.1551 40.0415C78.9711 40.0415 77.9551 39.7935 77.1071 39.2975C76.2591 38.8015 75.6431 38.1135 75.2591 37.2335L77.4911 35.9375C77.9071 37.0895 78.7951 37.6655 80.1551 37.6655C81.5151 37.6655 82.1951 37.2175 82.1951 36.3215C82.1951 35.9375 81.9711 35.6255 81.5231 35.3855C81.0911 35.1455 80.5551 34.9455 79.9151 34.7855C79.2911 34.6095 78.6591 34.4095 78.0191 34.1855C77.3791 33.9615 76.8351 33.5935 76.3871 33.0815C75.9551 32.5535 75.7391 31.8895 75.7391 31.0895C75.7391 29.9855 76.1551 29.0975 76.9871 28.4255C77.8351 27.7535 78.8831 27.4175 80.1311 27.4175C81.1231 27.4175 82.0031 27.6415 82.7711 28.0895C83.5551 28.5215 84.1551 29.1295 84.5711 29.9135L82.3871 31.1375C81.9711 30.2255 81.2191 29.7695 80.1311 29.7695C79.6351 29.7695 79.2191 29.8815 78.8831 30.1055C78.5471 30.3135 78.3791 30.6255 78.3791 31.0415ZM92.4729 40.0415C90.6649 40.0415 89.1529 39.4335 87.9369 38.2175C86.7369 37.0015 86.1369 35.5055 86.1369 33.7295C86.1369 31.9375 86.7369 30.4415 87.9369 29.2415C89.1529 28.0255 90.6649 27.4175 92.4729 27.4175C93.6409 27.4175 94.7049 27.6975 95.6649 28.2575C96.6249 28.8175 97.3449 29.5695 97.8249 30.5135L95.5929 31.8095C95.3209 31.2335 94.9049 30.7855 94.3449 30.4655C93.8009 30.1295 93.1689 29.9615 92.4489 29.9615C91.3929 29.9615 90.5049 30.3215 89.7849 31.0415C89.0809 31.7615 88.7289 32.6575 88.7289 33.7295C88.7289 34.8015 89.0809 35.6975 89.7849 36.4175C90.5049 37.1375 91.3929 37.4975 92.4489 37.4975C93.1529 37.4975 93.7849 37.3295 94.3449 36.9935C94.9209 36.6575 95.3529 36.2095 95.6409 35.6495L97.8729 36.9215C97.3609 37.8815 96.6249 38.6415 95.6649 39.2015C94.7049 39.7615 93.6409 40.0415 92.4729 40.0415ZM102.409 29.7455C103.065 28.2575 104.297 27.5135 106.105 27.5135V30.3215C105.113 30.2575 104.249 30.4975 103.513 31.0415C102.777 31.5695 102.409 32.4495 102.409 33.6815V39.7295H99.8167V27.7295H102.409V29.7455ZM110.468 25.4495C110.148 25.7695 109.764 25.9295 109.316 25.9295C108.868 25.9295 108.476 25.7695 108.14 25.4495C107.82 25.1135 107.66 24.7215 107.66 24.2735C107.66 23.8255 107.82 23.4415 108.14 23.1215C108.46 22.7855 108.852 22.6175 109.316 22.6175C109.78 22.6175 110.172 22.7855 110.492 23.1215C110.812 23.4415 110.972 23.8255 110.972 24.2735C110.972 24.7215 110.804 25.1135 110.468 25.4495ZM108.02 39.7295V27.7295H110.612V39.7295H108.02ZM120.413 27.4175C122.061 27.4175 123.469 28.0255 124.637 29.2415C125.805 30.4575 126.389 31.9535 126.389 33.7295C126.389 35.4895 125.805 36.9855 124.637 38.2175C123.469 39.4335 122.061 40.0415 120.413 40.0415C118.589 40.0415 117.189 39.3615 116.213 38.0015V39.7295H113.621V22.9295H116.213V29.4335C117.189 28.0895 118.589 27.4175 120.413 27.4175ZM117.293 36.4895C118.013 37.2095 118.917 37.5695 120.005 37.5695C121.093 37.5695 121.997 37.2095 122.717 36.4895C123.437 35.7535 123.797 34.8335 123.797 33.7295C123.797 32.6255 123.437 31.7135 122.717 30.9935C121.997 30.2575 121.093 29.8895 120.005 29.8895C118.917 29.8895 118.013 30.2575 117.293 30.9935C116.573 31.7135 116.213 32.6255 116.213 33.7295C116.213 34.8335 116.573 35.7535 117.293 36.4895ZM130.779 34.8335C130.971 35.7455 131.411 36.4495 132.099 36.9455C132.787 37.4255 133.627 37.6655 134.619 37.6655C135.995 37.6655 137.027 37.1695 137.715 36.1775L139.851 37.4255C138.667 39.1695 136.915 40.0415 134.595 40.0415C132.643 40.0415 131.067 39.4495 129.867 38.2655C128.667 37.0655 128.067 35.5535 128.067 33.7295C128.067 31.9375 128.659 30.4415 129.843 29.2415C131.027 28.0255 132.547 27.4175 134.403 27.4175C136.163 27.4175 137.603 28.0335 138.723 29.2655C139.859 30.4975 140.427 31.9935 140.427 33.7535C140.427 34.0255 140.395 34.3855 140.331 34.8335H130.779ZM130.755 32.7215H137.811C137.635 31.7455 137.227 31.0095 136.587 30.5135C135.963 30.0175 135.227 29.7695 134.379 29.7695C133.419 29.7695 132.619 30.0335 131.979 30.5615C131.339 31.0895 130.931 31.8095 130.755 32.7215Z" fill="white"/>
</svg>
